<svg xmlns="http://www.w3.org/2000/svg" viewBox="0 0 306.28 431" fill="#d4c8ad" width="1164" height="1638">
    <title>parchment_background</title>
    <path d="M304.08,400.79c0-4.76,0-9.52,0-14.29,0-.77.32-2.6,0-3.28-.57-1.23-1.25-1.09-2.58-1.33-1.12-.2-5.36-.38-5.9-1.49,1-1.45,4.15-1.24,5.44-2.38s.92-1.74.32-3.51c-.7-2-1.67-2-.5-4a17.49,17.49,0,0,0,1.55-2.84c.4-1.09.12-2.74.65-3.68,1-1.82,1.75-1,1.75-3.31s.69-4.36.83-6.57c.31-5-.47-9.84-.65-14.81-.14-3.68-.43-7.35-.79-11-.42-4.24-.1-8.41-.33-12.65a7.29,7.29,0,0,0-1.91-4.77,10,10,0,0,1-1.67-5,22.32,22.32,0,0,1,.07-6.63,22.88,22.88,0,0,0,.44-3.22c0-.84-.52-2.29,0-3,.92-1.34,2.64-.7,3.21-2.46s-.21-4.27-.2-6.16c0-4.66,2-9,1.74-13.76a74.69,74.69,0,0,1-.18-11.89c0-.41.11-.78.17-1.13h.2c0-1.41,0-2.8.1-4.23s.73-3.57.4-5c-.58-2.47-5.66-3-7.58-4.51,1.39-.78,3.13-1.15,4.41-2,1.69-1.19,1.52-2.68,1.51-4.51,0-4.77-.88-9.41-1-14.15-.25-9.07-.76-18.09-.53-27.18.22-8.86-.19-17.93.83-26.75a47.82,47.82,0,0,1,.92-6.55c.47-1.82,1.65-2.77-.5-3.5-1.59-.54-3.72-.54-4.84-1.85-.73-.85-2.08-3.52-1-4.37s4.93-.27,5.6-1.93c.28-.69-.48-2.19-.57-2.95a26.54,26.54,0,0,1-.05-4c.08-2.5.87-4-1.88-4.83-2-.61-4.26-1-5.81-2.39q2.8-1,5.62-1.85c2.35-.73,2.23-.71,2.29-3.79a91.9,91.9,0,0,0-.66-13c-1-8.21.06-16.17.59-24.42.25-3.89.6-7.77.77-11.67.19-4.16,1-8.72-.46-12.65a20.05,20.05,0,0,1-.84-4.94,13.48,13.48,0,0,1-.13-2.87c.07-.61.7-1.62.57-2.2-.32-1.5-3.57-2.64-3.57-4a7.51,7.51,0,0,1,1.37-3.86c1.95-2.66,1.37-8.16,1.52-11.53.2-4.41.32-8.83.53-13.24.18-3.76,0-7.44.1-11.19,0-.59.13-1.53.22-2.58H292.28V418h11.39C303.88,412.27,304.12,406.54,304.08,400.79Z"/>
    <path d="M281.38,2.2c-3.29,0-6.58,0-9.88,0-.53,0-1.79-.32-2.27,0-.85.57-.75,1.25-.92,2.58-.14,1.12-.26,5.36-1,5.9-1-1-.86-4.15-1.64-5.44s-1.2-.92-2.43-.32c-1.41.7-1.41,1.67-2.78.5a11.7,11.7,0,0,0-2-1.55c-.75-.4-1.89-.12-2.54-.65-1.26-1-.69-1.75-2.29-1.75s-3-.69-4.54-.83c-3.44-.31-6.8.47-10.24.65-2.55.14-5.08.43-7.62.79-2.93.42-5.82.1-8.74.33-1.53.12-2.13.66-3.3,1.91A5.64,5.64,0,0,1,215.74,6a10.73,10.73,0,0,1-4.59-.07,11.29,11.29,0,0,0-2.23-.44c-.58,0-1.58.52-2.07,0-.93-.92-.48-2.64-1.7-3.21s-3,.21-4.26.2c-3.22,0-6.24-2-9.51-1.74a35.78,35.78,0,0,1-8.22.18,6.78,6.78,0,0,1-.78-.17V.6a25.16,25.16,0,0,1-2.92-.1c-1-.07-2.47-.73-3.43-.4-1.71.58-2.1,5.66-3.12,7.58-.54-1.39-.79-3.13-1.42-4.41-.82-1.69-1.85-1.52-3.11-1.51-3.3,0-6.51.88-9.78,1-6.27.25-12.51.76-18.79.53-6.13-.22-12.4.19-18.49-.83a23.62,23.62,0,0,1-4.53-.92c-1.26-.47-1.92-1.65-2.42.5-.37,1.59-.38,3.72-1.28,4.84-.59.73-2.44,2.08-3,1s-.19-4.93-1.33-5.6c-.48-.28-1.51.48-2,.57a12.71,12.71,0,0,1-2.76.05c-1.73-.08-2.76-.87-3.34,1.88-.43,2-.7,4.26-1.65,5.81q-.67-2.8-1.28-5.62c-.51-2.35-.49-2.23-2.62-2.29a44.17,44.17,0,0,0-9,.66c-5.68,1-11.18-.06-16.88-.59-2.69-.25-5.37-.6-8.07-.77-2.88-.19-6-1-8.74.46a10.07,10.07,0,0,1-3.42.84,6.48,6.48,0,0,1-2,.13c-.42-.07-1.12-.7-1.52-.57-1,.32-1.83,3.57-2.8,3.57A4.31,4.31,0,0,1,39.93,5c-1.84-1.95-5.64-1.37-8-1.52-3.05-.2-6.1-.32-9.15-.53-2.6-.18-5.15,0-7.74-.1-.41,0-1.06-.13-1.79-.22V14h280V2.61C289.32,2.4,285.36,2.16,281.38,2.2Z"/>
    <path d="M25,428.8c3.29,0,6.58,0,9.88,0,.53,0,1.79.32,2.27,0,.85-.57.75-1.25.92-2.58.14-1.12.26-5.36,1-5.9,1,1,.86,4.15,1.64,5.44s1.2.92,2.43.32c1.41-.7,1.41-1.67,2.78-.5a11.7,11.7,0,0,0,2,1.55c.75.4,1.89.12,2.54.65,1.26,1,.69,1.75,2.29,1.75s3,.69,4.54.83c3.44.31,6.8-.47,10.24-.65,2.55-.14,5.08-.43,7.62-.79,2.93-.42,5.82-.1,8.74-.33,1.53-.12,2.13-.66,3.3-1.91A5.64,5.64,0,0,1,90.68,425a10.73,10.73,0,0,1,4.59.07,11.29,11.29,0,0,0,2.23.44c.58,0,1.58-.52,2.07,0,.93.92.48,2.64,1.7,3.21s3-.21,4.26-.2c3.22,0,6.24,2,9.51,1.74a35.78,35.78,0,0,1,8.22-.18,6.78,6.78,0,0,1,.78.17v.2a25.16,25.16,0,0,1,2.92.1c1,.07,2.47.73,3.43.4,1.71-.58,2.1-5.66,3.12-7.58.54,1.39.79,3.13,1.42,4.41.82,1.69,1.85,1.52,3.11,1.51,3.3,0,6.51-.88,9.78-1,6.27-.25,12.51-.76,18.79-.53,6.13.22,12.4-.19,18.49.83a23.62,23.62,0,0,1,4.53.92c1.26.47,1.92,1.65,2.42-.5.37-1.59.38-3.72,1.28-4.84.59-.73,2.44-2.08,3-1s.19,4.93,1.33,5.6c.48.28,1.51-.48,2-.57a12.71,12.71,0,0,1,2.76-.05c1.73.08,2.76.87,3.34-1.88.43-2,.7-4.26,1.65-5.81q.67,2.8,1.28,5.62c.51,2.35.49,2.23,2.62,2.29a44.17,44.17,0,0,0,9-.66c5.68-1,11.18.06,16.88.59,2.69.25,5.37.6,8.07.77,2.88.19,6,1,8.74-.46a10.07,10.07,0,0,1,3.42-.84,6.48,6.48,0,0,1,2-.13c.42.07,1.12.7,1.52.57,1-.32,1.83-3.57,2.8-3.57a4.31,4.31,0,0,1,2.67,1.37c1.84,1.95,5.64,1.37,8,1.52,3.05.2,6.1.32,9.15.53,2.6.18,5.15,0,7.74.1.41,0,1.06.13,1.79.22V417h-280v11.39C17.1,428.6,21.07,428.84,25,428.8Z"/>
    <path d="M2.2,30.21c0,4.76,0,9.52,0,14.29,0,.77-.32,2.6,0,3.28C2.78,49,3.47,48.87,4.8,49.11c1.12.2,5.36.38,5.9,1.49-1,1.45-4.15,1.24-5.44,2.38s-.92,1.74-.32,3.51c.7,2,1.67,2,.5,4A17.49,17.49,0,0,0,3.9,63.36c-.4,1.09-.12,2.74-.65,3.68-1,1.82-1.75,1-1.75,3.31S.8,74.7.66,76.91c-.31,5,.47,9.84.65,14.81.14,3.68.43,7.35.79,11,.42,4.24.1,8.41.33,12.65a7.29,7.29,0,0,0,1.91,4.77,10,10,0,0,1,1.67,5,22.32,22.32,0,0,1-.07,6.63A22.88,22.88,0,0,0,5.5,135c0,.84.52,2.29,0,3-.92,1.34-2.64.7-3.21,2.46s.21,4.27.2,6.16c0,4.66-2,9-1.74,13.76A74.69,74.69,0,0,1,1,172.29c0,.41-.11.78-.17,1.13H.6c0,1.41,0,2.8-.1,4.23s-.73,3.57-.4,5c.58,2.47,5.66,3,7.58,4.51-1.39.78-3.13,1.15-4.41,2-1.69,1.19-1.52,2.68-1.51,4.51,0,4.77.88,9.41,1,14.15.25,9.07.76,18.09.53,27.18-.22,8.86.19,17.93-.83,26.75a47.82,47.82,0,0,1-.92,6.55c-.47,1.82-1.65,2.77.5,3.5,1.59.54,3.72.54,4.84,1.85.73.85,2.08,3.52,1,4.37s-4.93.27-5.6,1.93c-.28.69.48,2.19.57,2.95a26.54,26.54,0,0,1,.05,4c-.08,2.5-.87,4,1.88,4.83,2,.61,4.26,1,5.81,2.39q-2.8,1-5.62,1.85c-2.35.73-2.23.71-2.29,3.79a91.9,91.9,0,0,0,.66,13c1,8.21-.06,16.17-.59,24.42-.25,3.89-.6,7.77-.77,11.67-.19,4.16-1,8.72.46,12.65a20.05,20.05,0,0,1,.84,4.94,13.48,13.48,0,0,1,.13,2.87c-.07.61-.7,1.62-.57,2.2.32,1.5,3.57,2.64,3.57,4A7.51,7.51,0,0,1,5,379.45c-1.95,2.66-1.37,8.16-1.52,11.53-.2,4.41-.32,8.83-.53,13.24-.18,3.76,0,7.44-.1,11.19,0,.59-.13,1.53-.22,2.58H14V13H2.61C2.4,18.73,2.16,24.46,2.2,30.21Z"/>
    <path d="M299.86,2.67c-1,.06-1.91.09-2.86.11l-3.51-.14-1.2,0V14h11.36l0-2a15,15,0,0,0,0-3c-.08-1.45.85-2.6,1.42-4C306.43,1.91,304.45,2.37,299.86,2.67Z"/>
    <path d="M6.42,2.67c1,.06,1.91.09,2.86.11l3.51-.14,1.2,0V14H2.64l0-2a15,15,0,0,1,0-3c.08-1.45-.85-2.6-1.42-4C-.15,1.91,1.83,2.37,6.42,2.67Z"/>
    <path d="M6.42,428.33c1-.06,1.91-.09,2.86-.11l3.51.14,1.2,0V417H2.64l0,2a15,15,0,0,0,0,3c.08,1.45-.85,2.6-1.42,4C-.15,429.09,1.83,428.63,6.42,428.33Z"/>
    <path d="M299.86,428.33c-1-.06-1.91-.09-2.86-.11l-3.51.14-1.2,0V417h11.36l0,2a15,15,0,0,1,0,3c-.08,1.45.85,2.6,1.42,4C306.43,429.09,304.45,428.63,299.86,428.33Z"/>
    <rect x="13" y="13" width="280.28" height="405"/>
</svg>