<svg xmlns="http://www.w3.org/2000/svg" viewBox="0 0 792.24 3.96" preserveAspectRatio="none" width="100%" height="100%"
     fill="#85816E">
    <g opacity="0.39">
        <path d="M479,1.59a2.55,2.55,0,0,0,.88.32c3.65-.16,7.34.35,11-.3,1.75-.31,3.95-.19,6-.36,4-.34,8.2-.4,12.32-.42,9.09-.06,18.19,0,27.28,0,4.58,0,9.14-.29,13.72-.35s9.41.08,14.09,0a78.34,78.34,0,0,1,8.25.46,55.49,55.49,0,0,0,12,0c.87-.08,1.81,0,2.72,0,3.49,0,7,.14,10.45,0,13.8-.67,27.64-.21,41.46-.35,5.56-.67,11.26-.29,16.9-.37a57,57,0,0,1,11.14.69,94.93,94.93,0,0,0,14.09.42c2.14-.24,4.16-.68,6-1,1.72.09,3.27.24,4.81.24,8,0,16.07,0,24.1,0,2.91,0,5.81.27,8.72.34a22.15,22.15,0,0,0,2.93-.33c3.24.75,7.3-.17,10.29.45,3.76.78,6.86-.5,10.24,0l1.17.52a41.74,41.74,0,0,1-8.63.55c-8.94,0-17.89,0-26.83,0-3.72,0-7.23-.53-11-.44s-7.52.6-11.45.45c-3.76-.14-7.57-.05-11.36,0-.79,0-1.61.37-2.34.33-1.58-.09-2.79.36-4.18.38-1.23,0-2.46-.26-3.72-.34-1-.06-2.12,0-3.18,0q-41.6,0-83.21,0c-7.15,0-14.27-.42-21.45-.41-3.89,0-7.56.53-11.45.45a104.22,104.22,0,0,0-11.33,0c-4.77.43-9.48.24-14.21.3s-9.4,0-14.09,0c-4.43,0-8.79.59-13.26.37-3.08.68-6.41.32-9.63.36-4.14,0-8.15.56-12.36.42s-8.59.21-12.7-.1c-4.46-.34-8.86-.27-13.29-.3s-9.18-.24-13.62,0c-9.89.63-19.84.51-29.64.24-13.84-.39-27.65-.2-41.47-.27s-27.58,0-41.38,0c-2.15,0-4.29-.25-6.45-.36a39,39,0,0,1-6-.33,21.89,21.89,0,0,0-4.94,0c-3.76.22-7.3-.41-11-.4s-7.43.27-10.87-.07c-4-.4-8-.23-11.94-.29s-8.29-.26-12.25,0c-8.08.61-16.15.14-24.2.33-5.26-.65-10.65-.32-16-.37s-10.69-.24-15.89,0c-6.72.38-13.4.28-20.1.31s-13.64,0-20.46,0a26.09,26.09,0,0,0-2.88.28c-3,.32-5.86.85-9.25.15-2.78-.57-15-.78-18.15-.38a38.27,38.27,0,0,1-7.49,0,79.92,79.92,0,0,0-10,0c-7.9.57-15.83.2-23.74.36-2,0-3.88.52-6,.36s-4.14.25-6.12-.25c-1.78-.45-3.93.1-6-.44a15.85,15.85,0,0,0-5.28,0,18.31,18.31,0,0,1-6.23,0,14.9,14.9,0,0,0-4.42-.05c-4.56.82-8.94.25-13.22-.22A18.72,18.72,0,0,0,40.23,2a43.65,43.65,0,0,1-7.42.3c-2.11.05-4.25,0-6.36,0a18,18,0,0,1-5.32-.58l2.63-.56c4.56,0,9.55,0,14.55,0,1.41,0,3,.26,4.24-.34a8.35,8.35,0,0,1,2.07.11c.54.05,1.05.23,1.57.23a111.92,111.92,0,0,1,11.53.76,8.51,8.51,0,0,0,2.25,0c3.13-.63,6.43-.32,9.65-.34,7,0,13.94,0,20.92,0,6.11,0,12.13-.65,18.27-.38,2-.57,4.45-.2,6.6-.7a26.91,26.91,0,0,1,4.93-.05c2.88,0,5.87-.21,8.62,0,6.69.6,13.5,0,20.08.4s13.11.23,19.65.3,13.41.27,20,0c8.39-.4,16.82.05,25.08-.39,9.77-.52,19.48-.18,29.2-.28s19.77-.31,29.53.07c7.95.3,15.83.15,23.74.28,3.84.07,7.54-.53,11.45-.4a109,109,0,0,0,11.79,0c8.07-.62,16.14-.21,24.2-.31S360,0,368.21.1c3.19.05,6.32.61,9.49.93,2.74.28,5.56.44,8.19.9a4.17,4.17,0,0,0,.9,0A33.53,33.53,0,0,1,394,1.7a45.34,45.34,0,0,0,7,.22c4.27-.13,8.5-.51,12.81-.35,3.54-.73,7.32-.29,11-.36a106.51,106.51,0,0,1,11.33.06c3.58.33,7.16,0,10.55.34,6.85.65,13.72.15,20.56.34,1.13,0,2.38-.21,3.39.27a4.77,4.77,0,0,0,1.69.09C474.41,2.11,476.44,1.87,479,1.59Z"/>
        <path d="M783.21,1.18c-3.59.06-7.27,0-10.58.88a14.56,14.56,0,0,1-3.11.18H759.1c-.41,0-.83-.51-1.27-.69.16-.07.31-.27.5-.28,1.55-.08,3.28.17,4.39-.34a26.2,26.2,0,0,0,4.3.22A23.94,23.94,0,0,1,770.3.81c4.2,0,8.39,0,12.59.07C783,.88,783.11,1.08,783.21,1.18Z"/>
        <path d="M17.88,2.2c-5.93,0-11.27,0-16.6,0A4.77,4.77,0,0,1,0,1.67c3.12-.2,6-.11,8.85-.09S14.74,1.29,17.88,2.2Z"/>
        <path d="M782.91,1.27l7.85-.54,1.49.62a12.82,12.82,0,0,1-2,.5A18.06,18.06,0,0,1,782.91,1.27Z"/>
    </g>
    <g id="O8Gvj8.tif-2">
        <path d="M362.64,2.37c-.09-.09-.24-.33-.36-.32-1.48.16-3-.35-4.46.3a13.3,13.3,0,0,1-2.41.36,26.28,26.28,0,0,1-5,.42c-3.67.06-7.35,0-11,0-1.85,0-3.69.29-5.54.35s-3.8-.08-5.69,0a13.13,13.13,0,0,1-3.33-.46,9.19,9.19,0,0,0-4.85,0,5.35,5.35,0,0,1-1.1,0,35.51,35.51,0,0,0-4.22,0c-5.58.67-11.17.21-16.75.35-2.25.67-4.55.29-6.83.37a9.69,9.69,0,0,1-4.5-.69,15.7,15.7,0,0,0-5.69-.42,20.13,20.13,0,0,0-2.41,1,16.53,16.53,0,0,0-1.94-.24c-3.24,0-6.49,0-9.74,0-1.18,0-2.35-.27-3.52-.34a4,4,0,0,0-1.18.33c-1.31-.75-2.95.17-4.16-.45-1.52-.78-2.77.5-4.14,0l-.47-.52A7.12,7.12,0,0,1,256.82,2c3.61,0,7.23,0,10.84,0,1.5,0,2.92.53,4.44.44s3-.6,4.62-.45a38.62,38.62,0,0,0,4.59,0c.32,0,.65-.37.95-.33.64.09,1.13-.36,1.69-.38a9.15,9.15,0,0,1,1.5.34,9,9,0,0,0,1.28,0c11.2,0,22.41,0,33.61,0,2.89,0,5.76.42,8.67.41,1.57,0,3.06-.53,4.62-.45a17.07,17.07,0,0,0,4.58,0,30,30,0,0,1,5.74-.3c1.9-.06,3.8,0,5.69,0S353.2.66,355,.89c1.25-.68,2.59-.32,3.89-.36,1.67,0,3.29-.56,5-.42s3.47-.21,5.13.1a32.5,32.5,0,0,0,5.37.3,31.4,31.4,0,0,0,5.5,0,53,53,0,0,1,12-.24c5.59.39,11.17.2,16.75.27s11.14,0,16.72,0a23.27,23.27,0,0,1,2.6.36,6.56,6.56,0,0,1,2.44.33,3.63,3.63,0,0,0,2,0c1.52-.22,2.95.41,4.44.4a18.06,18.06,0,0,1,4.39.07A23.15,23.15,0,0,0,446,2,22.49,22.49,0,0,0,451,2c3.26-.61,6.52-.14,9.78-.33,2.12.65,4.3.32,6.46.37a40.82,40.82,0,0,0,6.42,0,64.23,64.23,0,0,1,8.12-.31c2.75,0,5.51,0,8.27,0a4.58,4.58,0,0,0,1.16-.28c1.2-.32,2.37-.85,3.73-.15,1.12.57,6.07.78,7.33.38a6.32,6.32,0,0,1,3,0,13.11,13.11,0,0,0,4,0c3.19-.57,6.4-.2,9.59-.36.81,0,1.57-.52,2.42-.36s1.67-.25,2.47.25,1.59-.1,2.41.44a2.68,2.68,0,0,0,2.13,0,3.1,3.1,0,0,1,2.52,0,2.5,2.5,0,0,0,1.79.05c1.84-.82,3.61-.25,5.34.22a3.13,3.13,0,0,0,1.91.13,7.28,7.28,0,0,1,3-.3c.85-.05,1.72,0,2.57,0a3.3,3.3,0,0,1,2.15.58l-1.06.56c-1.84,0-3.86,0-5.88,0-.57,0-1.2-.26-1.71.34-.11.12-.55,0-.84-.11s-.42-.23-.64-.23A18.93,18.93,0,0,1,532.83,2a1.42,1.42,0,0,0-.91,0c-1.26.63-2.6.32-3.9.34-2.82,0-5.63,0-8.45,0-2.47,0-4.9.65-7.38.38-.79.57-1.8.2-2.66.7-.51.3-1.32.05-2,.05a16.29,16.29,0,0,1-3.48,0c-2.7-.6-5.45,0-8.11-.4a57.94,57.94,0,0,0-7.94-.3,57.19,57.19,0,0,0-8.07,0c-3.39.4-6.8-.05-10.13.39-3.95.52-7.87.18-11.8.28a99.4,99.4,0,0,1-11.93-.07c-3.21-.3-6.4-.15-9.59-.28-1.55-.07-3,.53-4.63.4a17.85,17.85,0,0,0-4.76,0c-3.26.62-6.52.21-9.78.31s-6.62.11-9.92,0a19.6,19.6,0,0,1-3.83-.93,20.9,20.9,0,0,1-3.31-.9.69.69,0,0,0-.36,0c-1,.16-1.85.59-2.91.24A7.51,7.51,0,0,0,394.13,2,31.75,31.75,0,0,1,389,2.4c-1.43.73-3,.29-4.44.36a17.45,17.45,0,0,1-4.58-.06c-1.44-.33-2.89,0-4.26-.34-2.77-.65-5.54-.15-8.31-.34-.46,0-1,.21-1.37-.27-.12-.13-.46-.14-.68-.09C364.49,1.85,363.67,2.09,362.64,2.37Z"/>
        <path d="M239.74,2.78A7.6,7.6,0,0,0,244,1.66a2.53,2.53,0,0,1,1.26-.42h4.2c.17,0,.34.74.51.93-.06.07-.13.39-.2.4-.63.08-1.33-.11-1.77.4a4.32,4.32,0,0,0-1.74-.19,4.27,4.27,0,0,1-1.32.35c-1.7,0-3.39,0-5.09-.06C239.83,3.07,239.78,2.88,239.74,2.78Z"/>
        <path d="M548.92,1.76c2.4,0,4.55,0,6.71,0,.13,0,.26.25.52.51a19.9,19.9,0,0,1-3.58.09C551.41,2.37,550.19,2.67,548.92,1.76Z"/>
        <path d="M239.87,2.69l-3.17.54-.6-.62a3.1,3.1,0,0,1,.82-.5A3.24,3.24,0,0,1,239.87,2.69Z"/>
    </g>
</svg>